<?xml version="1.0" encoding="utf-8"?>
<!-- Generator: Adobe Illustrator 26.5.0, SVG Export Plug-In . SVG Version: 6.00 Build 0)  -->
<svg version="1.1" id="Layer_1" xmlns="http://www.w3.org/2000/svg" xmlns:xlink="http://www.w3.org/1999/xlink" x="0px" y="0px"
	 viewBox="0 0 479.4 103.2" style="enable-background:new 0 0 479.4 103.2;" xml:space="preserve">
<style type="text/css">
	.st0{fill-rule:evenodd;clip-rule:evenodd;fill:#00A5B8;}
	.st1{fill-rule:evenodd;clip-rule:evenodd;fill:#FFFFFF;}
</style>
<g>
	<g>
		<path class="st0" d="M0,86.1c1.6-1,2-0.8,2.6,0.9c1.1,3.3,2.7,6.4,5.3,8.9c4.5,4.2,9.9,5.3,15.7,3.4c4.5-1.4,7.1-5.6,7.1-10.4
			c0-5.2-2.2-9.1-6.3-12c-3.4-2.4-6.9-4.5-10.3-6.9c-2.3-1.7-4.6-3.5-6.4-5.6c-8.4-9.9-3.8-23.5,8.8-26.6c5-1.2,9.9-0.9,14.8,0.3
			c0.9,0.2,1.8,0.6,2.7,0.6c1.1,0,1.5,0.6,1.6,1.5c0.4,3.1,0.8,6.3,1.2,9.4c0.1,0.8-0.1,1.3-1,1.4c-0.8,0.1-1.3-0.1-1.6-0.9
			c-0.6-1.6-1.2-3.2-2-4.6c-1.5-2.6-3.8-4.2-6.7-5c-2.7-0.7-5.3-0.7-8,0c-6.5,1.6-9.4,9-6.1,15.1c1.6,2.9,4,5,6.7,6.8
			c2.7,1.8,5.5,3.4,8.3,5.2c4,2.5,7.5,5.6,9.5,9.9c4.2,8.7,1.9,22.1-12.7,25.2c-1.9,0.4-3.6,0.5-5.5,0.5s-3.9-0.1-5.8-0.3
			c-1.2-0.2-3.7-1-5.5-1.4c-3.1-0.7-4.7-2.6-5.1-5.8c-0.3-2.5-0.8-5-1.3-7.5C0,87.3,0,86.7,0,86.1z"/>
		<path class="st0" d="M109.2,94.1c0.1,3.2,1.2,4.2,4.4,4.8c0.8,0.1,1.5,0.3,2.3,0.4c0.9,0.1,1.2,0.5,1.1,1.4
			c-0.1,1-0.6,1.1-1.4,1.1c-5.2-0.1-10.3-0.2-15.5-0.2c-2,0-4.1,0.1-6.1,0.2c-0.8,0-1.2-0.2-1.2-1.1c0-0.7,0.1-1.2,1-1.3
			c1-0.1,2.1-0.3,3.1-0.4c2.7-0.5,3.8-1.6,4-4.3c0.2-2,0.3-4.1,0.3-6.1c0-13.1,0-26.2,0-39.3c0-1.5-0.2-3-0.5-4.5
			c-0.3-1.7-1.4-2.6-3.1-2.8c-1-0.1-2-0.3-3-0.4c-0.8-0.1-1.2-0.5-1.1-1.3c0-0.8,0.4-1.1,1.2-1.2c5.5-0.2,11.1-0.7,16.6-0.7
			c4.6,0,9.3,0.2,13.9,0.8c4.9,0.7,9.1,2.9,11.8,7.3c3.5,5.8,3.3,15.3-4.8,21.2c-1.3,0.9-2.6,1.6-4,2.4c-1.3,0.7-1.5,1-0.7,2.3
			c1.7,2.8,3.4,5.5,5.2,8.3c3.6,5.5,7.3,11,12.1,15.6c2.4,2.3,4.9,4.3,8.4,4.6c0.9,0.1,0.7,1.3-0.1,1.4c-5.8,0.8-11.4,0.3-16.1-3.6
			c-3.5-2.8-6.1-6.4-8.5-10.1c-2.6-4-5.2-7.9-7.7-11.9c-1.5-2.5-3.7-3.6-6.5-3.5c-1.1,0-2.3,0-3.4,0c-1.2,0-1.8,0.6-1.8,1.9
			c0,2.9,0,5.8,0,8.7C109,83.7,109.1,90.6,109.2,94.1z M109,55.9c0,4.1,0,8.2,0,12.2c0,1.2,0.4,1.9,1.7,1.9c3.1,0,6.2,0.2,9.2-0.1
			c5.1-0.5,8.8-3.7,9.9-8.7c0.5-2.4,0.7-4.9,0.5-7.3c-0.5-5.6-3.4-9.7-8.8-11.7c-3.5-1.3-7.1-1.3-10.7-0.8c-1.4,0.2-1.9,0.9-1.9,2.5
			C108.9,47.8,109,51.8,109,55.9z"/>
		<path class="st0" d="M59.4,38c4.7,0.1,9.4,0.2,14,1.5c9.6,2.7,15.5,9.1,18.1,18.6c2.9,10.4,2.1,20.6-3.2,30.1
			C83.7,96.5,76.5,101,67,102c-4.8,0.5-9.4-0.1-14.2-0.3c-3.7-0.2-7.4,0-11,0c-0.7,0-1.5,0.2-1.6-1c-0.1-1.1,0.5-1.4,1.4-1.5
			c0.1,0,0.3,0,0.4-0.1c3.5-0.6,4.5-1.6,4.7-5.1c0.1-2.1,0.2-4.2,0.2-6.2c0-12.2,0-24.3,0-36.5c0-2-0.1-4.1-0.4-6.1
			c-0.4-2.6-1.3-3.3-3.9-3.8c-0.5-0.1-1.1-0.3-1.4-0.7c-0.5-0.9,0-1.7,1.1-1.8C48.1,38.6,53.8,38.3,59.4,38z M53.2,67.4
			C53.1,67.4,53.1,67.4,53.2,67.4c-0.1,0.8-0.1,1.6-0.1,2.5c0,6.6,0,13.1,0.1,19.7c0.1,5.6,2.4,8.6,7.1,9.5c0.6,0.1,1.3,0.2,1.9,0.2
			c7.8,0.5,14.8-2.2,19.1-9.8c2.4-4.3,3.4-9,3.9-13.8c0.7-6.4,0.4-12.7-1.7-18.9c-2.6-7.5-7.4-12.9-15.3-14.9
			c-3.8-1-7.6-1.1-11.5-0.4c-2.9,0.5-3.5,1-3.5,4C53.1,52.8,53.2,60.1,53.2,67.4z"/>
	</g>
	<g>
		<path class="st1" d="M140.4,21.6c5.5,0,11,0,16.6,0c1.6,15.5,5.1,30.8,7.8,46.5c0.4-0.5,0.6-0.8,0.8-1.1
			c13-21.8,25.9-43.7,37.9-66c0.4-0.8,0.9-1.1,1.9-1c2.4,0.2,4.8,0.1,7.4,0.1c-0.3,0.4-0.5,0.8-0.8,1.3
			c-15.1,25.3-30.3,50.5-45.4,75.8c-1.7,2.9-3.3,5.8-4.9,8.7c-0.2,0.3-0.7,0.7-1,0.7c-2.4,0-4.9-0.2-7.3-0.3
			C149,64.8,144.7,43.2,140.4,21.6z"/>
		<path class="st1" d="M256.7,86.3c0.4-2,0.8-4.2,1.2-6.3c1.4-7.4,2.9-14.7,4.2-22.1c0.4-2.1,0.5-4.2,0.4-6.3
			c-0.2-4.9-3.6-7.3-8.4-6c-2.4,0.7-4.1,2.2-5.4,4.2c-2.3,3.5-3.4,7.6-4.2,11.7c-1.6,8-3.1,16-4.7,24c-0.1,0.6-0.1,1.1-1,1
			c-4.2-0.7-8.4-0.5-12.6,0c-0.1,0-0.2,0-0.4-0.1c3.1-16.1,6.3-32.3,9.4-48.3c4.4,0,8.7,0,13.2,0c-0.4,2.1-0.8,4.4-1.3,7
			c1-0.8,1.6-1.4,2.3-2c3.4-2.7,7-5,11.3-5.9c3.2-0.6,6.3-0.5,9.4,0.5c3.9,1.2,5.9,4,6.6,7.9c0.7,4.1,0,8.1-0.8,12.1
			c-1.8,9.4-3.7,18.8-5.5,28.2c0,0.1-0.1,0.2-0.1,0.3C265.9,86.3,261.4,86.3,256.7,86.3z"/>
		<path class="st1" d="M345.9,38.1c4.6,0,9.1,0,13.7,0c-3.1,16.1-6.2,32.2-9.3,48.2c-4.5,0-8.8,0-13.3,0c0.4-2.2,0.8-4.4,1.3-7
			c-1.2,1-2.1,1.7-3,2.5c-3.1,2.6-6.5,4.8-10.6,5.4c-3.1,0.4-6.2,0.4-9.1-0.7c-5.4-1.9-8.2-6.4-7.3-12.4c0.6-4.2,1.4-8.5,2.2-12.7
			c1.4-7.6,2.9-15.1,4.4-22.7c0-0.2,0.2-0.5,0.2-0.6c4.6,0,9.1,0,13.7,0c-1.1,5.8-2.3,11.8-3.4,17.7c-0.9,5.1-1.9,10.1-2.6,15.2
			c-0.5,3.7,1.7,7.2,4.7,7.9c3.5,0.8,7.4-0.8,9.6-3.9s2.9-6.7,3.6-10.4c1.7-8.6,3.3-17.3,5-25.9C345.8,38.6,345.9,38.3,345.9,38.1z"
			/>
		<path class="st1" d="M220.6,76.5c0.3,0.3,0.6,0.6,0.9,0.9c-1,1.7-2,3.5-3,5.2c-0.2,0.3-0.5,0.5-0.7,0.7
			c-7.9,4.5-16.3,5.6-24.9,2.5c-6.1-2.2-9.5-6.8-10.3-13.1c-1.1-9.4,0.8-18.2,6.8-25.7c6-7.6,14.1-10.6,23.7-9.8
			c2.3,0.2,4.7,0.7,6.9,1.7c4.7,2,6.8,5.9,7.5,10.8c0.6,3.9-0.1,7.7-0.9,11.5c-0.2,1-0.7,1.3-1.7,1.3c-8.6,0-17.3,0-25.9-0.1
			c-1.2,0-1.6,0.4-1.8,1.5c-0.5,3.2-0.9,6.5,0,9.7c1.1,4.5,4.4,7.1,9,7.5c5,0.4,9.4-1.3,13.5-3.9C220,76.9,220.2,76.7,220.6,76.5z
			 M213.5,57.4c0.3-1.7,0.7-3.3,0.7-4.9c0-2.7,0-5.4-0.5-8c-0.5-2.5-2.2-3.4-4.8-3.1c-2.2,0.3-3.8,1.4-5.1,3.1
			c-2.3,2.8-3.5,6.2-4.5,9.6c-0.3,1.1-0.5,2.1-0.8,3.3C203.6,57.4,208.5,57.4,213.5,57.4z"/>
		<path class="st1" d="M434.4,76.5c0.3,0.2,0.6,0.5,1,0.8c-1.1,1.8-2.2,3.7-3.2,5.5c-0.1,0.2-0.5,0.4-0.7,0.5
			c-7.2,4.1-14.9,5.2-23,3c-7.5-2-11.5-7.2-12.2-14.8c-0.8-8.9,1.1-17.2,6.7-24.4c6-7.7,14.2-10.9,23.8-10.1c2,0.1,4,0.5,5.8,1.2
			c5.6,2.1,8.3,6.4,8.8,12.2c0.3,3.6-0.1,7.1-1,10.6c-0.2,1-0.6,1.2-1.6,1.2c-8.7,0-17.4,0-26,0c-1.1,0-1.6,0.3-1.7,1.5
			c-0.5,3.1-0.8,6.2-0.2,9.3c1,4.8,4.3,7.6,9.2,7.9c4.6,0.3,8.6-1.1,12.5-3.3C433.2,77.3,433.8,76.9,434.4,76.5z M412.4,57.4
			c4.9,0,9.6,0,14.3,0c0.3,0,0.8-0.5,0.8-0.9c0.3-2.4,0.7-4.9,0.8-7.4c0-1.7-0.3-3.5-0.8-5.1c-0.6-2.1-2.1-2.8-4.2-2.7
			c-2.2,0.1-3.9,1.2-5.2,2.8C414.7,48,413.6,52.6,412.4,57.4z"/>
		<path class="st1" d="M288.2,44.1c-2.3,0-4.4,0-6.5,0c0.3-2,0.6-3.8,1-5.6c0.1-0.3,0.6-0.6,1-0.6c1.6-0.1,3.1-0.1,4.7,0
			c0.8,0,1.2-0.2,1.4-1.1c0.5-3,1.2-5.9,1.7-8.9c0.2-0.9,0.5-1.5,1.5-1.9c4.2-1.6,8.3-3.4,12.4-5.1c0.4-0.2,0.8-0.3,1.4-0.6
			c-1.1,5.9-2.2,11.6-3.4,17.5c2.9,0,5.6,0,8.4,0c-0.4,2.2-0.8,4.1-1.2,6.3c-2,0-4.2,0-6.4,0c-2.3,0-2-0.3-2.4,1.9
			c-1.9,10-3.9,20-5.8,30c-0.9,4.8,1,6.6,5.8,5.7c0.7-0.1,1.4-0.2,2.3-0.4c-0.2,1.2-0.4,2.3-0.7,3.4c-0.1,0.2-0.4,0.5-0.6,0.6
			c-4.4,1.5-8.8,2.7-13.5,1.8c-4.6-0.8-7.1-3.6-7-8.3c0.1-3.8,0.7-7.7,1.4-11.5c1.3-7.3,2.8-14.6,4.2-21.9
			C288.1,45.1,288.1,44.8,288.2,44.1z"/>
		<path class="st1" d="M472.9,50.2c-0.2-2.3-1-4.3-2.7-6c-3.5-3.4-10.1-2.8-12.9,1.2c-1.9,2.8-1.4,5.8,1.5,7.5c2.1,1.2,4.4,2,6.6,3
			c1.4,0.6,2.8,1.2,4.1,1.9c5,2.8,6.9,7.1,5.9,12.7c-1.5,8.4-7.4,14.4-16.2,16.2c-6.1,1.3-12.1,1.1-17.7-2.2c-1.8-1.1-1.8-1.1-1.1-3
			c0.8-2.2,1.7-4.5,2.3-6.8c0.3-1.1,1-0.9,1.8-1s1.1,0.3,1.3,1c1.8,7.6,10.6,9.9,16.5,4.7c3.1-2.8,2.9-6.5-0.7-8.6
			c-2.1-1.2-4.4-2.1-6.6-3.2c-1.1-0.5-2.3-1.1-3.4-1.7c-5.4-3.1-7.3-7.5-5.9-13.5c1.9-8.4,9-14.7,17.7-15.5
			c5.6-0.5,10.7,0.5,15.3,3.7c0.7,0.5,0.9,0.9,0.5,1.8c-1,1.9-1.9,3.9-2.8,5.9C475.5,50.7,475.4,50.7,472.9,50.2z"/>
		<path class="st1" d="M370,38.1c4.7,0,9.2,0,13.8,0c-0.7,3.7-1.4,7.4-2.1,11.2c4.1-7.3,9.6-12.3,18.7-12.4
			c-0.6,2.1-1.1,4.1-1.6,6.1c-0.5,2.2-0.9,4.3-1.3,6.5c-0.3,1.6-0.8,1.8-2.2,1.2c-5.2-2.2-12,0.4-14.3,6c-1.2,2.8-1.8,5.9-2.4,8.9
			c-1.4,6.9-2.7,13.9-4,20.8c-2.3-0.1-4.6-0.4-6.8-0.4c-2.2,0-4.5,0.2-7,0.4C363.7,70.3,366.9,54.2,370,38.1z"/>
	</g>
</g>
</svg>
