<svg width="800" height="400" xmlns="http://www.w3.org/2000/svg">
  <rect width="800" height="400" fill="#1e293b"/>
  
  <!-- Grid lines -->
  <line x1="100" y1="50" x2="100" y2="350" stroke="#475569" stroke-width="1"/>
  <line x1="100" y1="350" x2="750" y2="350" stroke="#475569" stroke-width="1"/>
  
  <!-- Bars -->
  <rect x="140" y="180" width="60" height="170" fill="#0ea5e9" opacity="0.7"/>
  <rect x="220" y="150" width="60" height="200" fill="#0ea5e9" opacity="0.7"/>
  <rect x="300" y="200" width="60" height="150" fill="#0ea5e9" opacity="0.7"/>
  <rect x="380" y="140" width="60" height="210" fill="#0ea5e9" opacity="0.7"/>
  <rect x="460" y="120" width="60" height="230" fill="#0ea5e9" opacity="0.7"/>
  <rect x="540" y="100" width="60" height="250" fill="#0ea5e9" opacity="0.7"/>
  <rect x="620" y="90" width="60" height="260" fill="#0ea5e9" opacity="0.7"/>
  
  <!-- Labels -->
  <text x="170" y="370" fill="#94a3b8" font-size="12" text-anchor="middle">Q3 23</text>
  <text x="250" y="370" fill="#94a3b8" font-size="12" text-anchor="middle">Q4 23</text>
  <text x="330" y="370" fill="#94a3b8" font-size="12" text-anchor="middle">Q1 24</text>
  <text x="410" y="370" fill="#94a3b8" font-size="12" text-anchor="middle">Q2 24</text>
  <text x="490" y="370" fill="#94a3b8" font-size="12" text-anchor="middle">Q3 24</text>
  <text x="570" y="370" fill="#94a3b8" font-size="12" text-anchor="middle">Q4 24</text>
  <text x="650" y="370" fill="#94a3b8" font-size="12" text-anchor="middle">Q1 25</text>
  
  <!-- Title -->
  <text x="400" y="30" fill="#e2e8f0" font-size="16" font-weight="bold" text-anchor="middle">Transaction Volume by Quarter</text>
  
  <!-- Y-axis labels -->
  <text x="85" y="355" fill="#94a3b8" font-size="12" text-anchor="end">0</text>
  <text x="85" y="275" fill="#94a3b8" font-size="12" text-anchor="end">50</text>
  <text x="85" y="195" fill="#94a3b8" font-size="12" text-anchor="end">100</text>
  <text x="85" y="115" fill="#94a3b8" font-size="12" text-anchor="end">150</text>
  <text x="85" y="55" fill="#94a3b8" font-size="12" text-anchor="end">200</text>
</svg>
