<svg width="800" height="400" xmlns="http://www.w3.org/2000/svg">
  <rect width="800" height="400" fill="#1e293b"/>
  
  <!-- Grid -->
  <line x1="100" y1="50" x2="100" y2="350" stroke="#475569" stroke-width="1"/>
  <line x1="100" y1="350" x2="750" y2="350" stroke="#475569" stroke-width="1"/>
  
  <!-- Bars for quarterly data -->
  <rect x="120" y="180" width="25" height="170" fill="#64748b" opacity="0.5"/>
  <rect x="155" y="150" width="25" height="200" fill="#64748b" opacity="0.5"/>
  <rect x="190" y="200" width="25" height="150" fill="#64748b" opacity="0.5"/>
  <rect x="225" y="140" width="25" height="210" fill="#64748b" opacity="0.5"/>
  <rect x="260" y="120" width="25" height="230" fill="#64748b" opacity="0.5"/>
  <rect x="295" y="170" width="25" height="180" fill="#64748b" opacity="0.5"/>
  <rect x="330" y="130" width="25" height="220" fill="#64748b" opacity="0.5"/>
  <rect x="365" y="110" width="25" height="240" fill="#64748b" opacity="0.5"/>
  <rect x="400" y="160" width="25" height="190" fill="#64748b" opacity="0.5"/>
  <rect x="435" y="125" width="25" height="225" fill="#0ea5e9" opacity="0.7"/>
  <rect x="470" y="135" width="25" height="215" fill="#0ea5e9" opacity="0.7"/>
  <rect x="505" y="100" width="25" height="250" fill="#0ea5e9" opacity="0.7"/>
  
  <!-- Moving average line -->
  <polyline points="132,200 167,175 202,210 237,165 272,145 307,180 342,155 377,135 412,175 447,150 482,160 517,125" 
            fill="none" stroke="#f59e0b" stroke-width="3" stroke-dasharray="5,5"/>
  
  <!-- X-axis labels -->
  <text x="130" y="370" fill="#94a3b8" font-size="10" text-anchor="middle">Q1</text>
  <text x="165" y="370" fill="#94a3b8" font-size="10" text-anchor="middle">Q2</text>
  <text x="200" y="370" fill="#94a3b8" font-size="10" text-anchor="middle">Q3</text>
  <text x="235" y="370" fill="#94a3b8" font-size="10" text-anchor="middle">Q4</text>
  <text x="270" y="370" fill="#94a3b8" font-size="10" text-anchor="middle">Q1</text>
  <text x="305" y="370" fill="#94a3b8" font-size="10" text-anchor="middle">Q2</text>
  <text x="340" y="370" fill="#94a3b8" font-size="10" text-anchor="middle">Q3</text>
  <text x="375" y="370" fill="#94a3b8" font-size="10" text-anchor="middle">Q4</text>
  <text x="410" y="370" fill="#94a3b8" font-size="10" text-anchor="middle">Q1</text>
  <text x="445" y="370" fill="#94a3b8" font-size="10" text-anchor="middle">Q2</text>
  <text x="480" y="370" fill="#94a3b8" font-size="10" text-anchor="middle">Q3</text>
  <text x="515" y="370" fill="#94a3b8" font-size="10" text-anchor="middle">Q4</text>
  
  <!-- Year labels -->
  <text x="190" y="390" fill="#94a3b8" font-size="12" font-weight="bold" text-anchor="middle">2023</text>
  <text x="320" y="390" fill="#94a3b8" font-size="12" font-weight="bold" text-anchor="middle">2024</text>
  <text x="460" y="390" fill="#94a3b8" font-size="12" font-weight="bold" text-anchor="middle">2025</text>
  
  <!-- Y-axis labels -->
  <text x="85" y="355" fill="#94a3b8" font-size="12" text-anchor="end">0</text>
  <text x="85" y="275" fill="#94a3b8" font-size="12" text-anchor="end">40</text>
  <text x="85" y="195" fill="#94a3b8" font-size="12" text-anchor="end">80</text>
  <text x="85" y="115" fill="#94a3b8" font-size="12" text-anchor="end">120</text>
  
  <!-- Title -->
  <text x="400" y="30" fill="#e2e8f0" font-size="16" font-weight="bold" text-anchor="middle">Healthcare Services Deal Count by Quarter</text>
  
  <!-- Legend -->
  <rect x="550" y="80" width="15" height="15" fill="#64748b" opacity="0.5"/>
  <text x="570" y="92" fill="#e2e8f0" font-size="12">Historical</text>
  
  <rect x="550" y="105" width="15" height="15" fill="#0ea5e9" opacity="0.7"/>
  <text x="570" y="117" fill="#e2e8f0" font-size="12">2H 2025</text>
  
  <line x1="550" y1="137" x2="565" y2="137" stroke="#f59e0b" stroke-width="3" stroke-dasharray="5,5"/>
  <text x="570" y="142" fill="#e2e8f0" font-size="12">12-mo MA</text>
</svg>
